LibreFranklin-Thin.ufo
<glyph name="exclam" format="2">
  <advance width="232"/>
  <unicode hex="0021"/>
  <guideline x="75" y="105" angle="90"/>
  <guideline x="157" y="114" angle="90"/>
  <outline>
    <contour>
      <point x="147" y="11" type="curve"/>
      <point x="147" y="71" type="line"/>
      <point x="147" y="77"/>
      <point x="145" y="79"/>
      <point x="140" y="79" type="curve"/>
      <point x="92" y="79" type="line" smooth="yes"/>
      <point x="88" y="79"/>
      <point x="85" y="77"/>
      <point x="85" y="70" type="curve"/>
      <point x="85" y="10" type="line" smooth="yes"/>
      <point x="85" y="3"/>
      <point x="87" y="0"/>
      <point x="95" y="0" type="curve"/>
      <point x="134" y="0" type="line" smooth="yes"/>
      <point x="144" y="0"/>
      <point x="147" y="3"/>
    </contour>
    <contour>
      <point x="132" y="156" type="curve"/>
      <point x="143" y="736" type="line"/>
      <point x="143" y="739"/>
      <point x="141" y="742"/>
      <point x="137" y="742" type="curve"/>
      <point x="95" y="742" type="line" smooth="yes"/>
      <point x="92" y="742"/>
      <point x="90" y="740"/>
      <point x="90" y="735" type="curve"/>
      <point x="100" y="155" type="line" smooth="yes"/>
      <point x="100" y="150"/>
      <point x="102" y="148"/>
      <point x="108" y="148" type="curve"/>
      <point x="122" y="148" type="line" smooth="yes"/>
      <point x="129" y="148"/>
      <point x="132" y="150"/>
    </contour>
  </outline>
</glyph>
<glyph name="comma" format="2">
  <advance width="187"/>
  <unicode hex="002C"/>
  <outline>
    <contour>
      <point x="50" y="-134" type="curve"/>
      <point x="50" y="-134" type="line"/>
      <point x="57" y="-134" type="line" smooth="yes"/>
      <point x="63" y="-134"/>
      <point x="66" y="-132"/>
      <point x="68" y="-128" type="curve"/>
      <point x="125" y="4" type="line" smooth="yes"/>
      <point x="126" y="7"/>
      <point x="127" y="11"/>
      <point x="127" y="16" type="curve"/>
      <point x="127" y="73" type="line" smooth="yes"/>
      <point x="127" y="77"/>
      <point x="125" y="79"/>
      <point x="121" y="79" type="curve"/>
      <point x="71" y="79" type="line" smooth="yes"/>
      <point x="67" y="79"/>
      <point x="65" y="77"/>
      <point x="65" y="73" type="curve"/>
      <point x="65" y="7" type="line" smooth="yes"/>
      <point x="65" y="3"/>
      <point x="67" y="0"/>
      <point x="73" y="0" type="curve"/>
      <point x="82" y="0" type="line" smooth="yes"/>
      <point x="91" y="0"/>
      <point x="93" y="-3"/>
      <point x="90" y="-10" type="curve"/>
      <point x="47" y="-124" type="line" smooth="yes"/>
      <point x="44" y="-131"/>
      <point x="46" y="-134"/>
    </contour>
  </outline>
</glyph>
<glyph name="B" format="2">
  <advance width="684"/>
  <unicode hex="0042"/>
  <outline>
    <contour>
      <point x="122" y="0" type="curve"/>
      <point x="122" y="0" type="line"/>
      <point x="331" y="0" type="line" smooth="yes"/>
      <point x="506" y="0"/>
      <point x="609" y="65"/>
      <point x="609" y="197" type="curve"/>
      <point x="609" y="297"/>
      <point x="550" y="356"/>
      <point x="460" y="373" type="curve"/>
      <point x="454" y="374"/>
      <point x="454" y="380"/>
      <point x="460" y="382" type="curve"/>
      <point x="548" y="409"/>
      <point x="591" y="467"/>
      <point x="591" y="551" type="curve"/>
      <point x="591" y="675"/>
      <point x="494" y="742"/>
      <point x="328" y="742" type="curve"/>
      <point x="123" y="742" type="line" smooth="yes"/>
      <point x="116" y="742"/>
      <point x="114" y="740"/>
      <point x="114" y="732" type="curve"/>
      <point x="114" y="8" type="line" smooth="yes"/>
      <point x="114" y="3"/>
      <point x="117" y="0"/>
    </contour>
    <contour>
      <point x="326" y="40" type="curve"/>
      <point x="167" y="40" type="line"/>
      <point x="162" y="40"/>
      <point x="160" y="43"/>
      <point x="160" y="50" type="curve"/>
      <point x="160" y="346" type="line" smooth="yes"/>
      <point x="160" y="353"/>
      <point x="163" y="355"/>
      <point x="171" y="355" type="curve"/>
      <point x="340" y="355" type="line" smooth="yes"/>
      <point x="465" y="355"/>
      <point x="561" y="311"/>
      <point x="561" y="191" type="curve"/>
      <point x="561" y="82"/>
      <point x="484" y="40"/>
    </contour>
    <contour>
      <point x="340" y="395" type="curve"/>
      <point x="167" y="395" type="line"/>
      <point x="162" y="395"/>
      <point x="160" y="398"/>
      <point x="160" y="405" type="curve"/>
      <point x="160" y="694" type="line" smooth="yes"/>
      <point x="160" y="700"/>
      <point x="163" y="702"/>
      <point x="169" y="702" type="curve"/>
      <point x="324" y="702" type="line" smooth="yes"/>
      <point x="459" y="702"/>
      <point x="543" y="654"/>
      <point x="543" y="546" type="curve"/>
      <point x="543" y="424"/>
      <point x="433" y="395"/>
    </contour>
  </outline>
</glyph>
<glyph name="F" format="2">
  <advance width="583"/>
  <unicode hex="0046"/>
  <outline>
    <contour>
      <point x="114" y="732" type="curve"/>
      <point x="114" y="732" type="line"/>
      <point x="114" y="10" type="line" smooth="yes"/>
      <point x="114" y="2"/>
      <point x="116" y="0"/>
      <point x="123" y="0" type="curve"/>
      <point x="153" y="0" type="line" smooth="yes"/>
      <point x="158" y="0"/>
      <point x="160" y="2"/>
      <point x="160" y="7" type="curve"/>
      <point x="160" y="333" type="line" smooth="yes"/>
      <point x="160" y="341"/>
      <point x="162" y="342"/>
      <point x="169" y="342" type="curve"/>
      <point x="467" y="342" type="line" smooth="yes"/>
      <point x="473" y="342"/>
      <point x="475" y="343"/>
      <point x="475" y="349" type="curve"/>
      <point x="475" y="375" type="line" smooth="yes"/>
      <point x="475" y="380"/>
      <point x="473" y="382"/>
      <point x="468" y="382" type="curve"/>
      <point x="169" y="382" type="line" smooth="yes"/>
      <point x="162" y="382"/>
      <point x="160" y="383"/>
      <point x="160" y="389" type="curve"/>
      <point x="160" y="693" type="line" smooth="yes"/>
      <point x="160" y="701"/>
      <point x="162" y="702"/>
      <point x="169" y="702" type="curve"/>
      <point x="527" y="702" type="line" smooth="yes"/>
      <point x="533" y="702"/>
      <point x="535" y="703"/>
      <point x="535" y="709" type="curve"/>
      <point x="535" y="735" type="line" smooth="yes"/>
      <point x="535" y="740"/>
      <point x="533" y="742"/>
      <point x="528" y="742" type="curve"/>
      <point x="123" y="742" type="line" smooth="yes"/>
      <point x="116" y="742"/>
      <point x="114" y="740"/>
    </contour>
  </outline>
</glyph>
<glyph name="K" format="2">
  <advance width="674"/>
  <unicode hex="004B"/>
  <anchor x="373" y="742" name="top"/>
  <anchor x="343" y="0" name="bottom"/>
  <outline>
    <contour>
      <point x="623" y="7" type="curve"/>
      <point x="623" y="7" type="line"/>
      <point x="343" y="445" type="line" smooth="yes"/>
      <point x="341" y="449"/>
      <point x="341" y="449"/>
      <point x="343" y="451" type="curve"/>
      <point x="602" y="734" type="line" smooth="yes"/>
      <point x="606" y="738"/>
      <point x="605" y="742"/>
      <point x="599" y="742" type="curve"/>
      <point x="561" y="742" type="line" smooth="yes"/>
      <point x="555" y="742"/>
      <point x="553" y="741"/>
      <point x="550" y="738" type="curve"/>
      <point x="167" y="322" type="line" smooth="yes"/>
      <point x="162" y="317"/>
      <point x="160" y="317"/>
      <point x="160" y="323" type="curve"/>
      <point x="160" y="734" type="line" smooth="yes"/>
      <point x="160" y="740"/>
      <point x="157" y="742"/>
      <point x="152" y="742" type="curve"/>
      <point x="122" y="742" type="line" smooth="yes"/>
      <point x="116" y="742"/>
      <point x="114" y="739"/>
      <point x="114" y="734" type="curve"/>
      <point x="114" y="9" type="line" smooth="yes"/>
      <point x="114" y="2"/>
      <point x="117" y="0"/>
      <point x="124" y="0" type="curve"/>
      <point x="150" y="0" type="line" smooth="yes"/>
      <point x="157" y="0"/>
      <point x="160" y="3"/>
      <point x="160" y="9" type="curve"/>
      <point x="160" y="246" type="line" smooth="yes"/>
      <point x="160" y="254"/>
      <point x="162" y="257"/>
      <point x="168" y="263" type="curve"/>
      <point x="300" y="409" type="line" smooth="yes"/>
      <point x="305" y="414"/>
      <point x="308" y="415"/>
      <point x="312" y="409" type="curve"/>
      <point x="570" y="5" type="line" smooth="yes"/>
      <point x="572" y="2"/>
      <point x="576" y="0"/>
      <point x="581" y="0" type="curve"/>
      <point x="620" y="0" type="line" smooth="yes"/>
      <point x="624" y="0"/>
      <point x="626" y="3"/>
    </contour>
  </outline>
</glyph>
<glyph name="Q" format="2">
  <advance width="758"/>
  <unicode hex="0051"/>
  <outline>
    <contour>
      <point x="78" y="369" type="curve"/>
      <point x="78" y="369" type="line"/>
      <point x="78" y="116"/>
      <point x="195" y="-10"/>
      <point x="379" y="-10" type="curve"/>
      <point x="405" y="-10"/>
      <point x="435" y="-7"/>
      <point x="460" y="-1" type="curve"/>
      <point x="467" y="1"/>
      <point x="472" y="-1"/>
      <point x="475" y="-5" type="curve"/>
      <point x="540" y="-96"/>
      <point x="606" y="-122"/>
      <point x="650" y="-122" type="curve"/>
      <point x="664" y="-122"/>
      <point x="670" y="-120"/>
      <point x="670" y="-109" type="curve"/>
      <point x="670" y="-87" type="line" smooth="yes"/>
      <point x="670" y="-84"/>
      <point x="669" y="-81"/>
      <point x="663" y="-80" type="curve"/>
      <point x="588" y="-70"/>
      <point x="521" y="-11"/>
      <point x="521" y="16" type="curve"/>
      <point x="521" y="20"/>
      <point x="522" y="22"/>
      <point x="527" y="25" type="curve"/>
      <point x="624" y="83"/>
      <point x="680" y="189"/>
      <point x="680" y="369" type="curve"/>
      <point x="680" y="620"/>
      <point x="567" y="752"/>
      <point x="379" y="752" type="curve"/>
      <point x="191" y="752"/>
      <point x="78" y="620"/>
    </contour>
    <contour>
      <point x="126" y="367" type="curve"/>
      <point x="126" y="367" type="line"/>
      <point x="126" y="592"/>
      <point x="212" y="710"/>
      <point x="379" y="710" type="curve"/>
      <point x="546" y="710"/>
      <point x="632" y="592"/>
      <point x="632" y="369" type="curve"/>
      <point x="632" y="141"/>
      <point x="543" y="32"/>
      <point x="379" y="32" type="curve"/>
      <point x="215" y="32"/>
      <point x="126" y="141"/>
    </contour>
  </outline>
</glyph>
<glyph name="bracketright" format="2">
  <advance width="268"/>
  <unicode hex="005D"/>
  <outline>
    <contour>
      <point x="162" y="736" type="line"/>
      <point x="162" y="740"/>
      <point x="160" y="742"/>
      <point x="154" y="742" type="curve" smooth="yes"/>
      <point x="22" y="742" type="line" smooth="yes"/>
      <point x="17" y="742"/>
      <point x="15" y="741"/>
      <point x="15" y="737" type="curve" smooth="yes"/>
      <point x="15" y="711" type="line" smooth="yes"/>
      <point x="15" y="707"/>
      <point x="18" y="705"/>
      <point x="22" y="705" type="curve" smooth="yes"/>
      <point x="111" y="705" type="line" smooth="yes"/>
      <point x="116" y="705"/>
      <point x="118" y="702"/>
      <point x="118" y="697" type="curve" smooth="yes"/>
      <point x="119" y="-122" type="line" smooth="yes"/>
      <point x="119" y="-127"/>
      <point x="118" y="-128"/>
      <point x="113" y="-128" type="curve" smooth="yes"/>
      <point x="24" y="-128" type="line" smooth="yes"/>
      <point x="19" y="-128"/>
      <point x="16" y="-131"/>
      <point x="16" y="-136" type="curve" smooth="yes"/>
      <point x="16" y="-157" type="line" smooth="yes"/>
      <point x="16" y="-163"/>
      <point x="18" y="-165"/>
      <point x="24" y="-165" type="curve" smooth="yes"/>
      <point x="152" y="-165" type="line" smooth="yes"/>
      <point x="158" y="-165"/>
      <point x="161" y="-162"/>
      <point x="161" y="-157" type="curve" smooth="yes"/>
      <point x="162" y="736" type="line"/>
    </contour>
  </outline>
</glyph>
<glyph name="asciicircum" format="2">
  <advance width="476"/>
  <unicode hex="005E"/>
  <outline>
    <contour>
      <point x="242" y="462" type="curve"/>
      <point x="366" y="145" type="line"/>
      <point x="368" y="140"/>
      <point x="373" y="137"/>
      <point x="379" y="137" type="curve"/>
      <point x="409" y="137" type="line" smooth="yes"/>
      <point x="415" y="137"/>
      <point x="417" y="140"/>
      <point x="415" y="146" type="curve"/>
      <point x="271" y="504" type="line" smooth="yes"/>
      <point x="251" y="554"/>
      <point x="221" y="550"/>
      <point x="203" y="504" type="curve"/>
      <point x="61" y="149" type="line" smooth="yes"/>
      <point x="58" y="143"/>
      <point x="61" y="139"/>
      <point x="66" y="139" type="curve"/>
      <point x="97" y="139" type="line" smooth="yes"/>
      <point x="102" y="139"/>
      <point x="105" y="141"/>
      <point x="107" y="146" type="curve"/>
      <point x="232" y="462" type="line" smooth="yes"/>
      <point x="234" y="468"/>
      <point x="239" y="468"/>
    </contour>
  </outline>
</glyph>
<glyph name="e" format="2">
  <advance width="577"/>
  <unicode hex="0065"/>
  <anchor x="393" y="18" name="ogonek"/>
  <anchor x="300" y="0" name="bottom"/>
  <anchor x="297" y="530" name="top"/>
  <outline>
    <contour>
      <point x="98" y="240" type="curve"/>
      <point x="98" y="240" type="line"/>
      <point x="98" y="247"/>
      <point x="100" y="254"/>
      <point x="104" y="254" type="curve"/>
      <point x="515" y="254" type="line" smooth="yes"/>
      <point x="530" y="254"/>
      <point x="528" y="266"/>
      <point x="528" y="274" type="curve"/>
      <point x="528" y="442"/>
      <point x="440" y="540"/>
      <point x="299" y="540" type="curve"/>
      <point x="158" y="540"/>
      <point x="56" y="436"/>
      <point x="56" y="261" type="curve"/>
      <point x="56" y="100"/>
      <point x="155" y="-10"/>
      <point x="299" y="-10" type="curve"/>
      <point x="393" y="-10"/>
      <point x="463" y="27"/>
      <point x="509" y="100" type="curve"/>
      <point x="512" y="104"/>
      <point x="511" y="108"/>
      <point x="508" y="110" type="curve"/>
      <point x="485" y="125" type="line" smooth="yes"/>
      <point x="481" y="128"/>
      <point x="478" y="127"/>
      <point x="474" y="121" type="curve"/>
      <point x="438" y="61"/>
      <point x="379" y="28"/>
      <point x="299" y="28" type="curve"/>
      <point x="187" y="28"/>
      <point x="98" y="127"/>
    </contour>
    <contour>
      <point x="469" y="290" type="curve"/>
      <point x="99" y="290" type="line"/>
      <point x="98" y="390"/>
      <point x="166" y="502"/>
      <point x="298" y="502" type="curve"/>
      <point x="414" y="502"/>
      <point x="486" y="414"/>
      <point x="486" y="304" type="curve"/>
      <point x="486" y="293"/>
      <point x="483" y="290"/>
    </contour>
  </outline>
</glyph>
<glyph name="l" format="2">
  <advance width="222"/>
  <unicode hex="006C"/>
  <anchor x="111" y="742" name="top"/>
  <anchor x="111" y="0" name="bottom"/>
  <anchor x="256" y="742" name="topright"/>
  <outline>
    <contour>
      <point x="131" y="12" type="curve"/>
      <point x="131" y="732" type="line"/>
      <point x="131" y="740"/>
      <point x="129" y="742"/>
      <point x="122" y="742" type="curve"/>
      <point x="100" y="742" type="line" smooth="yes"/>
      <point x="93" y="742"/>
      <point x="91" y="740"/>
      <point x="91" y="732" type="curve"/>
      <point x="91" y="10" type="line" smooth="yes"/>
      <point x="91" y="2"/>
      <point x="93" y="0"/>
      <point x="102" y="0" type="curve"/>
      <point x="119" y="0" type="line" smooth="yes"/>
      <point x="129" y="0"/>
      <point x="131" y="2"/>
    </contour>
  </outline>
</glyph>
<glyph name="s" format="2">
  <advance width="501"/>
  <unicode hex="0073"/>
  <anchor x="234" y="530" name="top"/>
  <anchor x="242" y="0" name="bottom"/>
  <outline>
    <contour>
      <point x="404" y="426" type="curve"/>
      <point x="404" y="426" type="line"/>
      <point x="406" y="423"/>
      <point x="410" y="423"/>
      <point x="413" y="425" type="curve"/>
      <point x="436" y="440" type="line" smooth="yes"/>
      <point x="439" y="442"/>
      <point x="440" y="444"/>
      <point x="437" y="448" type="curve"/>
      <point x="398" y="507"/>
      <point x="328" y="540"/>
      <point x="246" y="540" type="curve"/>
      <point x="137" y="540"/>
      <point x="55" y="481"/>
      <point x="55" y="390" type="curve"/>
      <point x="55" y="340"/>
      <point x="82" y="295"/>
      <point x="182" y="265" type="curve"/>
      <point x="285" y="233" type="line" smooth="yes"/>
      <point x="369" y="208"/>
      <point x="403" y="177"/>
      <point x="403" y="132" type="curve"/>
      <point x="403" y="70"/>
      <point x="333" y="28"/>
      <point x="243" y="28" type="curve"/>
      <point x="159" y="28"/>
      <point x="98" y="64"/>
      <point x="63" y="124" type="curve"/>
      <point x="61" y="127"/>
      <point x="57" y="127"/>
      <point x="54" y="125" type="curve"/>
      <point x="32" y="111" type="line" smooth="yes"/>
      <point x="28" y="108"/>
      <point x="28" y="105"/>
      <point x="30" y="101" type="curve"/>
      <point x="63" y="35"/>
      <point x="146" y="-10"/>
      <point x="243" y="-10" type="curve"/>
      <point x="357" y="-10"/>
      <point x="445" y="51"/>
      <point x="445" y="137" type="curve"/>
      <point x="445" y="194"/>
      <point x="407" y="238"/>
      <point x="329" y="263" type="curve"/>
      <point x="194" y="307" type="line" smooth="yes"/>
      <point x="116" y="332"/>
      <point x="97" y="365"/>
      <point x="97" y="398" type="curve"/>
      <point x="97" y="462"/>
      <point x="160" y="502"/>
      <point x="245" y="502" type="curve"/>
      <point x="318" y="502"/>
      <point x="373" y="473"/>
    </contour>
  </outline>
</glyph>
<glyph name="v" format="2">
  <advance width="530"/>
  <unicode hex="0076"/>
  <outline>
    <contour>
      <point x="490" y="530" type="curve"/>
      <point x="490" y="530" type="line"/>
      <point x="468" y="530" type="line" smooth="yes"/>
      <point x="462" y="530"/>
      <point x="459" y="528"/>
      <point x="457" y="523" type="curve"/>
      <point x="274" y="69" type="line" smooth="yes"/>
      <point x="268" y="55"/>
      <point x="263" y="55"/>
      <point x="258" y="68" type="curve"/>
      <point x="75" y="522" type="line" smooth="yes"/>
      <point x="73" y="528"/>
      <point x="70" y="530"/>
      <point x="63" y="530" type="curve"/>
      <point x="41" y="530" type="line" smooth="yes"/>
      <point x="34" y="530"/>
      <point x="31" y="526"/>
      <point x="33" y="520" type="curve"/>
      <point x="239" y="10" type="line" smooth="yes"/>
      <point x="242" y="3"/>
      <point x="249" y="0"/>
      <point x="259" y="0" type="curve"/>
      <point x="273" y="0" type="line" smooth="yes"/>
      <point x="282" y="0"/>
      <point x="288" y="3"/>
      <point x="291" y="11" type="curve"/>
      <point x="497" y="521" type="line" smooth="yes"/>
      <point x="499" y="526"/>
      <point x="496" y="530"/>
    </contour>
  </outline>
</glyph>
<glyph name="braceright" format="2">
  <advance width="267"/>
  <unicode hex="007D"/>
  <outline>
    <contour>
      <point x="151" y="652" type="line"/>
      <point x="151" y="704"/>
      <point x="117" y="742"/>
      <point x="43" y="742" type="curve" smooth="yes"/>
      <point x="22" y="742" type="line" smooth="yes"/>
      <point x="17" y="742"/>
      <point x="15" y="741"/>
      <point x="15" y="737" type="curve" smooth="yes"/>
      <point x="15" y="711" type="line" smooth="yes"/>
      <point x="15" y="707"/>
      <point x="18" y="705"/>
      <point x="22" y="705" type="curve" smooth="yes"/>
      <point x="43" y="705" type="line" smooth="yes"/>
      <point x="89" y="705"/>
      <point x="107" y="689"/>
      <point x="107" y="652" type="curve" smooth="yes"/>
      <point x="107" y="419" type="line" smooth="yes"/>
      <point x="107" y="338"/>
      <point x="149" y="297"/>
      <point x="201" y="292" type="curve" smooth="yes"/>
      <point x="209" y="291"/>
      <point x="210" y="286"/>
      <point x="201" y="285" type="curve" smooth="yes"/>
      <point x="150" y="281"/>
      <point x="107" y="245"/>
      <point x="107" y="162" type="curve" smooth="yes"/>
      <point x="107" y="-73" type="line" smooth="yes"/>
      <point x="107" y="-111"/>
      <point x="92" y="-128"/>
      <point x="42" y="-128" type="curve" smooth="yes"/>
      <point x="23" y="-128" type="line" smooth="yes"/>
      <point x="18" y="-128"/>
      <point x="15" y="-131"/>
      <point x="15" y="-136" type="curve" smooth="yes"/>
      <point x="15" y="-157" type="line" smooth="yes"/>
      <point x="15" y="-163"/>
      <point x="17" y="-165"/>
      <point x="23" y="-165" type="curve" smooth="yes"/>
      <point x="42" y="-165" type="line" smooth="yes"/>
      <point x="121" y="-165"/>
      <point x="151" y="-124"/>
      <point x="151" y="-73" type="curve" smooth="yes"/>
      <point x="151" y="162" type="line" smooth="yes"/>
      <point x="151" y="210"/>
      <point x="189" y="269"/>
      <point x="263" y="269" type="curve" smooth="yes"/>
      <point x="265" y="269"/>
      <point x="267" y="271"/>
      <point x="267" y="275" type="curve" smooth="yes"/>
      <point x="267" y="302" type="line" smooth="yes"/>
      <point x="267" y="306"/>
      <point x="265" y="308"/>
      <point x="263" y="308" type="curve" smooth="yes"/>
      <point x="188" y="309"/>
      <point x="151" y="359"/>
      <point x="151" y="419" type="curve" smooth="yes"/>
      <point x="151" y="652" type="line"/>
    </contour>
  </outline>
</glyph>
<glyph name="Oslash" format="2">
  <advance width="708"/>
  <unicode hex="00D8"/>
  <anchor x="355" y="742" name="top"/>
  <outline>
    <contour>
      <point x="684" y="727" type="curve"/>
      <point x="684" y="727" type="line"/>
      <point x="659" y="749" type="line"/>
      <point x="654" y="753"/>
      <point x="650" y="751"/>
      <point x="646" y="746" type="curve"/>
      <point x="571" y="659" type="line"/>
      <point x="519" y="720"/>
      <point x="446" y="752"/>
      <point x="355" y="752" type="curve"/>
      <point x="167" y="752"/>
      <point x="53" y="617"/>
      <point x="53" y="367" type="curve"/>
      <point x="53" y="266"/>
      <point x="72" y="184"/>
      <point x="108" y="123" type="curve"/>
      <point x="24" y="26" type="line"/>
      <point x="20" y="21"/>
      <point x="21" y="18"/>
      <point x="28" y="11" type="curve"/>
      <point x="45" y="-5" type="line"/>
      <point x="53" y="-11"/>
      <point x="58" y="-11"/>
      <point x="64" y="-3" type="curve"/>
      <point x="137" y="81" type="line"/>
      <point x="188" y="21"/>
      <point x="262" y="-10"/>
      <point x="354" y="-10" type="curve"/>
      <point x="542" y="-10"/>
      <point x="655" y="122"/>
      <point x="655" y="369" type="curve"/>
      <point x="655" y="472"/>
      <point x="636" y="555"/>
      <point x="600" y="617" type="curve"/>
      <point x="685" y="716" type="line"/>
      <point x="688" y="720"/>
      <point x="687" y="724"/>
    </contour>
    <contour>
      <point x="104" y="369" type="curve"/>
      <point x="104" y="369" type="line"/>
      <point x="104" y="597"/>
      <point x="190" y="709"/>
      <point x="355" y="709" type="curve"/>
      <point x="437" y="709"/>
      <point x="499" y="681"/>
      <point x="541" y="625" type="curve"/>
      <point x="141" y="161" type="line"/>
      <point x="116" y="214"/>
      <point x="104" y="283"/>
    </contour>
    <contour>
      <point x="604" y="369" type="curve"/>
      <point x="604" y="369" type="line"/>
      <point x="604" y="142"/>
      <point x="521" y="33"/>
      <point x="356" y="33" type="curve"/>
      <point x="273" y="33"/>
      <point x="210" y="61"/>
      <point x="167" y="117" type="curve"/>
      <point x="567" y="580" type="line"/>
      <point x="592" y="526"/>
      <point x="604" y="456"/>
    </contour>
  </outline>
</glyph>
<glyph name="Aringacute" format="2">
  <advance width="637"/>
  <unicode hex="01FA"/>
  <outline>
    <contour>
      <point x="418" y="802" type="curve"/>
      <point x="418" y="802" type="line"/>
      <point x="418" y="857"/>
      <point x="374" y="900"/>
      <point x="318" y="900" type="curve"/>
      <point x="263" y="900"/>
      <point x="218" y="857"/>
      <point x="218" y="804" type="curve"/>
      <point x="218" y="746"/>
      <point x="262" y="702"/>
      <point x="318" y="702" type="curve"/>
      <point x="374" y="702"/>
      <point x="418" y="745"/>
    </contour>
    <contour>
      <point x="375" y="801" type="curve"/>
      <point x="375" y="801" type="line"/>
      <point x="375" y="770"/>
      <point x="350" y="742"/>
      <point x="317" y="742" type="curve"/>
      <point x="286" y="742"/>
      <point x="258" y="770"/>
      <point x="258" y="801" type="curve"/>
      <point x="258" y="836"/>
      <point x="286" y="860"/>
      <point x="317" y="860" type="curve"/>
      <point x="350" y="860"/>
      <point x="375" y="836"/>
    </contour>
    <contour>
      <point x="335" y="742" type="curve"/>
      <point x="303" y="742" type="line"/>
      <point x="294" y="742"/>
      <point x="290" y="739"/>
      <point x="287" y="731" type="curve"/>
      <point x="40" y="9" type="line"/>
      <point x="38" y="4"/>
      <point x="41" y="0"/>
      <point x="47" y="0" type="curve"/>
      <point x="69" y="0" type="line" smooth="yes"/>
      <point x="75" y="0"/>
      <point x="78" y="2"/>
      <point x="80" y="7" type="curve"/>
      <point x="157" y="231" type="line" smooth="yes"/>
      <point x="159" y="236"/>
      <point x="161" y="238"/>
      <point x="167" y="238" type="curve"/>
      <point x="463" y="238" type="line" smooth="yes"/>
      <point x="469" y="238"/>
      <point x="471" y="236"/>
      <point x="473" y="231" type="curve"/>
      <point x="549" y="8" type="line" smooth="yes"/>
      <point x="551" y="2"/>
      <point x="554" y="0"/>
      <point x="561" y="0" type="curve"/>
      <point x="588" y="0" type="line" smooth="yes"/>
      <point x="595" y="0"/>
      <point x="598" y="4"/>
      <point x="596" y="10" type="curve"/>
      <point x="353" y="732" type="line"/>
      <point x="351" y="739"/>
      <point x="345" y="742"/>
    </contour>
    <contour>
      <point x="323" y="678" type="curve"/>
      <point x="455" y="288" type="line"/>
      <point x="457" y="282"/>
      <point x="456" y="278"/>
      <point x="448" y="278" type="curve"/>
      <point x="179" y="278" type="line" smooth="yes"/>
      <point x="173" y="278"/>
      <point x="172" y="279"/>
      <point x="175" y="286" type="curve"/>
      <point x="308" y="677" type="line" smooth="yes"/>
      <point x="313" y="691"/>
      <point x="319" y="691"/>
    </contour>
    <contour>
      <point x="362" y="964" type="curve"/>
      <point x="339" y="964" type="line"/>
      <point x="328" y="964"/>
      <point x="323" y="960"/>
      <point x="321" y="951" type="curve"/>
      <point x="303" y="875" type="line"/>
      <point x="341" y="875" type="line"/>
      <point x="372" y="948" type="line" smooth="yes"/>
      <point x="376" y="958"/>
      <point x="373" y="964"/>
    </contour>
  </outline>
</glyph>
<glyph name="acutecomb" format="2">
  <unicode hex="0301"/>
  <anchor x="-136" y="530" name="_top"/>
  <outline>
    <contour>
      <point x="-7" y="720" type="curve"/>
      <point x="-17" y="752" type="line"/>
      <point x="-18" y="755"/>
      <point x="-22" y="756"/>
      <point x="-25" y="755" type="curve"/>
      <point x="-254" y="664" type="line" smooth="yes"/>
      <point x="-257" y="663"/>
      <point x="-259" y="659"/>
      <point x="-257" y="654" type="curve"/>
      <point x="-252" y="639" type="line" smooth="yes"/>
      <point x="-250" y="633"/>
      <point x="-247" y="632"/>
      <point x="-241" y="634" type="curve"/>
      <point x="-14" y="708" type="line" smooth="yes"/>
      <point x="-6" y="711"/>
      <point x="-5" y="714"/>
    </contour>
  </outline>
</glyph>
<glyph name="macroncomb" format="2">
  <unicode hex="0304"/>
  <anchor x="-136" y="530" name="_top"/>
  <outline>
    <contour>
      <point x="-10" y="692" type="curve"/>
      <point x="-10" y="716" type="line"/>
      <point x="-10" y="719"/>
      <point x="-12" y="722"/>
      <point x="-15" y="722" type="curve"/>
      <point x="-257" y="722" type="line" smooth="yes"/>
      <point x="-260" y="722"/>
      <point x="-262" y="719"/>
      <point x="-262" y="715" type="curve"/>
      <point x="-262" y="692" type="line" smooth="yes"/>
      <point x="-262" y="687"/>
      <point x="-261" y="684"/>
      <point x="-255" y="684" type="curve"/>
      <point x="-20" y="684" type="line" smooth="yes"/>
      <point x="-12" y="684"/>
      <point x="-10" y="687"/>
    </contour>
  </outline>
</glyph>
<glyph name="quoteleft" format="2">
  <advance width="210"/>
  <unicode hex="2018"/>
  <outline>
    <contour>
      <point x="156" y="742" type="curve"/>
      <point x="156" y="742" type="line"/>
      <point x="139" y="742" type="line" smooth="yes"/>
      <point x="133" y="742"/>
      <point x="130" y="741"/>
      <point x="128" y="737" type="curve" smooth="yes"/>
      <point x="62" y="620" type="line" smooth="yes"/>
      <point x="61" y="618"/>
      <point x="60" y="617"/>
      <point x="60" y="614" type="curve" smooth="yes"/>
      <point x="60" y="552" type="line" smooth="yes"/>
      <point x="60" y="548"/>
      <point x="62" y="546"/>
      <point x="66" y="546" type="curve" smooth="yes"/>
      <point x="139" y="546" type="line" smooth="yes"/>
      <point x="143" y="546"/>
      <point x="145" y="548"/>
      <point x="145" y="552" type="curve" smooth="yes"/>
      <point x="145" y="621" type="line" smooth="yes"/>
      <point x="145" y="625"/>
      <point x="143" y="628"/>
      <point x="137" y="628" type="curve" smooth="yes"/>
      <point x="120" y="628" type="line" smooth="yes"/>
      <point x="113" y="628"/>
      <point x="112" y="633"/>
      <point x="116" y="642" type="curve" smooth="yes"/>
      <point x="161" y="735" type="line"/>
      <point x="162" y="738"/>
      <point x="160" y="742"/>
    </contour>
  </outline>
</glyph>
<glyph name="franc" format="2">
  <advance width="607"/>
  <unicode hex="20A3"/>
  <outline>
    <contour>
      <point x="333" y="160" type="curve"/>
      <point x="333" y="184" type="line"/>
      <point x="333" y="188"/>
      <point x="330" y="190"/>
      <point x="326" y="190" type="curve"/>
      <point x="11" y="189" type="line" smooth="yes"/>
      <point x="8" y="189"/>
      <point x="6" y="187"/>
      <point x="6" y="182" type="curve"/>
      <point x="6" y="158" type="line" smooth="yes"/>
      <point x="6" y="153"/>
      <point x="8" y="151"/>
      <point x="14" y="151" type="curve"/>
      <point x="323" y="152" type="line" smooth="yes"/>
      <point x="330" y="152"/>
      <point x="333" y="154"/>
    </contour>
    <contour>
      <point x="106" y="732" type="curve"/>
      <point x="106" y="732" type="line"/>
      <point x="106" y="10" type="line" smooth="yes"/>
      <point x="106" y="2"/>
      <point x="108" y="0"/>
      <point x="115" y="0" type="curve"/>
      <point x="145" y="0" type="line" smooth="yes"/>
      <point x="150" y="0"/>
      <point x="152" y="2"/>
      <point x="152" y="7" type="curve"/>
      <point x="152" y="333" type="line" smooth="yes"/>
      <point x="152" y="341"/>
      <point x="154" y="342"/>
      <point x="161" y="342" type="curve"/>
      <point x="509" y="342" type="line" smooth="yes"/>
      <point x="515" y="342"/>
      <point x="517" y="343"/>
      <point x="517" y="349" type="curve"/>
      <point x="517" y="375" type="line" smooth="yes"/>
      <point x="517" y="380"/>
      <point x="515" y="382"/>
      <point x="510" y="382" type="curve"/>
      <point x="161" y="382" type="line" smooth="yes"/>
      <point x="154" y="382"/>
      <point x="152" y="383"/>
      <point x="152" y="389" type="curve"/>
      <point x="152" y="693" type="line" smooth="yes"/>
      <point x="152" y="701"/>
      <point x="154" y="702"/>
      <point x="161" y="702" type="curve"/>
      <point x="539" y="702" type="line" smooth="yes"/>
      <point x="545" y="702"/>
      <point x="547" y="703"/>
      <point x="547" y="709" type="curve"/>
      <point x="547" y="735" type="line" smooth="yes"/>
      <point x="547" y="740"/>
      <point x="545" y="742"/>
      <point x="540" y="742" type="curve"/>
      <point x="115" y="742" type="line" smooth="yes"/>
      <point x="108" y="742"/>
      <point x="106" y="740"/>
    </contour>
  </outline>
</glyph>
<glyph name="infinity" format="2">
  <advance width="688"/>
  <unicode hex="221E"/>
  <outline>
    <contour>
      <point x="638" y="279" type="curve"/>
      <point x="638" y="280" type="line"/>
      <point x="638" y="370"/>
      <point x="578" y="426"/>
      <point x="498" y="426" type="curve"/>
      <point x="429" y="426"/>
      <point x="390" y="383"/>
      <point x="360" y="350" type="curve"/>
      <point x="352" y="340"/>
      <point x="349" y="340"/>
      <point x="339" y="350" type="curve"/>
      <point x="300" y="393"/>
      <point x="269" y="426"/>
      <point x="203" y="426" type="curve"/>
      <point x="114" y="426"/>
      <point x="50" y="366"/>
      <point x="50" y="275" type="curve"/>
      <point x="50" y="184"/>
      <point x="116" y="124"/>
      <point x="193" y="124" type="curve"/>
      <point x="275" y="124"/>
      <point x="321" y="191"/>
      <point x="336" y="207" type="curve"/>
      <point x="344" y="216"/>
      <point x="346" y="214"/>
      <point x="352" y="207" type="curve"/>
      <point x="391" y="162"/>
      <point x="425" y="124"/>
      <point x="490" y="124" type="curve"/>
      <point x="570" y="124"/>
      <point x="638" y="181"/>
    </contour>
    <contour>
      <point x="197" y="169" type="curve"/>
      <point x="194" y="169" type="line"/>
      <point x="138" y="169"/>
      <point x="93" y="213"/>
      <point x="93" y="278" type="curve"/>
      <point x="93" y="340"/>
      <point x="134" y="384"/>
      <point x="193" y="384" type="curve"/>
      <point x="244" y="384"/>
      <point x="281" y="350"/>
      <point x="317" y="295" type="curve"/>
      <point x="332" y="273"/>
      <point x="333" y="269"/>
      <point x="319" y="249" type="curve"/>
      <point x="294" y="215"/>
      <point x="248" y="169"/>
    </contour>
    <contour>
      <point x="497" y="384" type="curve"/>
      <point x="498" y="384" type="line"/>
      <point x="557" y="384"/>
      <point x="594" y="333"/>
      <point x="594" y="277" type="curve"/>
      <point x="594" y="225"/>
      <point x="562" y="169"/>
      <point x="502" y="169" type="curve"/>
      <point x="476" y="169"/>
      <point x="427" y="179"/>
      <point x="372" y="256" type="curve"/>
      <point x="363" y="267"/>
      <point x="358" y="282"/>
      <point x="372" y="299" type="curve"/>
      <point x="405" y="338"/>
      <point x="444" y="384"/>
    </contour>
  </outline>
</glyph>
<glyph name="four.numr" format="2">
  <advance width="416"/>
  <outline>
    <contour>
      <point x="240" y="740" type="curve"/>
      <point x="240" y="740" type="line"/>
      <point x="26" y="450" type="line" smooth="yes"/>
      <point x="22" y="444"/>
      <point x="21" y="440"/>
      <point x="21" y="436" type="curve" smooth="yes"/>
      <point x="21" y="417" type="line" smooth="yes"/>
      <point x="21" y="412"/>
      <point x="23" y="411"/>
      <point x="28" y="411" type="curve" smooth="yes"/>
      <point x="240" y="411" type="line" smooth="yes"/>
      <point x="244" y="411"/>
      <point x="245" y="409"/>
      <point x="245" y="407" type="curve" smooth="yes"/>
      <point x="245" y="282" type="line" smooth="yes"/>
      <point x="245" y="279"/>
      <point x="247" y="276"/>
      <point x="250" y="276" type="curve" smooth="yes"/>
      <point x="268" y="276" type="line" smooth="yes"/>
      <point x="272" y="276"/>
      <point x="274" y="278"/>
      <point x="274" y="282" type="curve" smooth="yes"/>
      <point x="274" y="405" type="line" smooth="yes"/>
      <point x="274" y="409"/>
      <point x="276" y="411"/>
      <point x="279" y="411" type="curve" smooth="yes"/>
      <point x="343" y="411" type="line" smooth="yes"/>
      <point x="347" y="411"/>
      <point x="349" y="413"/>
      <point x="349" y="417" type="curve" smooth="yes"/>
      <point x="349" y="433" type="line" smooth="yes"/>
      <point x="349" y="436"/>
      <point x="347" y="437"/>
      <point x="343" y="437" type="curve" smooth="yes"/>
      <point x="279" y="437" type="line" smooth="yes"/>
      <point x="275" y="437"/>
      <point x="274" y="439"/>
      <point x="274" y="442" type="curve" smooth="yes"/>
      <point x="274" y="737" type="line" smooth="yes"/>
      <point x="274" y="741"/>
      <point x="272" y="743"/>
      <point x="269" y="743" type="curve" smooth="yes"/>
      <point x="249" y="743" type="line" smooth="yes"/>
      <point x="245" y="743"/>
      <point x="241" y="741"/>
    </contour>
    <contour>
      <point x="237" y="437" type="curve" smooth="yes"/>
      <point x="59" y="437" type="line" smooth="yes"/>
      <point x="53" y="437"/>
      <point x="51" y="440"/>
      <point x="55" y="445" type="curve" smooth="yes"/>
      <point x="234" y="687" type="line" smooth="yes"/>
      <point x="240" y="695"/>
      <point x="243" y="694"/>
      <point x="243" y="685" type="curve" smooth="yes"/>
      <point x="243" y="441" type="line" smooth="yes"/>
      <point x="243" y="439"/>
      <point x="240" y="437"/>
    </contour>
  </outline>
</glyph>
<glyph name="one.numr" format="2">
  <advance width="299"/>
  <outline>
    <contour>
      <point x="214" y="302" type="curve"/>
      <point x="214" y="302" type="line"/>
      <point x="136" y="302" type="line" smooth="yes"/>
      <point x="134" y="302"/>
      <point x="132" y="304"/>
      <point x="132" y="306" type="curve" smooth="yes"/>
      <point x="132" y="737" type="line" smooth="yes"/>
      <point x="132" y="741"/>
      <point x="131" y="743"/>
      <point x="127" y="743" type="curve" smooth="yes"/>
      <point x="110" y="743" type="line" smooth="yes"/>
      <point x="105" y="743"/>
      <point x="102" y="742"/>
      <point x="97" y="739" type="curve"/>
      <point x="10" y="696" type="line"/>
      <point x="7" y="694"/>
      <point x="7" y="694"/>
      <point x="7" y="691" type="curve" smooth="yes"/>
      <point x="7" y="675" type="line" smooth="yes"/>
      <point x="7" y="672"/>
      <point x="8" y="670"/>
      <point x="12" y="671" type="curve"/>
      <point x="100" y="706" type="line"/>
      <point x="103" y="707"/>
      <point x="103" y="706"/>
      <point x="103" y="702" type="curve" smooth="yes"/>
      <point x="103" y="305" type="line" smooth="yes"/>
      <point x="103" y="303"/>
      <point x="102" y="302"/>
      <point x="100" y="302" type="curve" smooth="yes"/>
      <point x="11" y="302" type="line" smooth="yes"/>
      <point x="8" y="302"/>
      <point x="7" y="301"/>
      <point x="7" y="299" type="curve" smooth="yes"/>
      <point x="7" y="280" type="line" smooth="yes"/>
      <point x="7" y="278"/>
      <point x="8" y="276"/>
      <point x="11" y="276" type="curve" smooth="yes"/>
      <point x="214" y="276" type="line" smooth="yes"/>
      <point x="217" y="276"/>
      <point x="218" y="279"/>
      <point x="218" y="280" type="curve" smooth="yes"/>
      <point x="218" y="299" type="line" smooth="yes"/>
      <point x="218" y="301"/>
      <point x="217" y="302"/>
    </contour>
  </outline>
</glyph>
<glyph name="seven.numr" format="2">
  <advance width="365"/>
  <outline>
    <contour>
      <point x="334" y="742" type="curve" smooth="yes"/>
      <point x="39" y="742" type="line" smooth="yes"/>
      <point x="34" y="742"/>
      <point x="33" y="741"/>
      <point x="32" y="737" type="curve"/>
      <point x="31" y="720" type="line"/>
      <point x="31" y="717"/>
      <point x="31" y="715"/>
      <point x="34" y="715" type="curve" smooth="yes"/>
      <point x="297" y="715" type="line" smooth="yes"/>
      <point x="304" y="715"/>
      <point x="304" y="712"/>
      <point x="301" y="708" type="curve"/>
      <point x="200" y="552"/>
      <point x="136" y="376"/>
      <point x="115" y="283" type="curve" smooth="yes"/>
      <point x="114" y="278"/>
      <point x="115" y="275"/>
      <point x="121" y="275" type="curve" smooth="yes"/>
      <point x="139" y="275" type="line" smooth="yes"/>
      <point x="143" y="275"/>
      <point x="145" y="278"/>
      <point x="146" y="284" type="curve" smooth="yes"/>
      <point x="162" y="369"/>
      <point x="244" y="578"/>
      <point x="333" y="708" type="curve"/>
      <point x="338" y="714"/>
      <point x="338" y="717"/>
      <point x="338" y="723" type="curve" smooth="yes"/>
      <point x="338" y="738" type="line" smooth="yes"/>
      <point x="338" y="740"/>
      <point x="337" y="742"/>
    </contour>
  </outline>
</glyph>
<glyph name="six.numr" format="2">
  <advance width="404"/>
  <outline>
    <contour>
      <point x="209" y="753" type="curve"/>
      <point x="209" y="753" type="line"/>
      <point x="94" y="753"/>
      <point x="28" y="661"/>
      <point x="28" y="508" type="curve" smooth="yes"/>
      <point x="28" y="357"/>
      <point x="91" y="274"/>
      <point x="194" y="274" type="curve" smooth="yes"/>
      <point x="277" y="274"/>
      <point x="344" y="331"/>
      <point x="344" y="418" type="curve" smooth="yes"/>
      <point x="344" y="495"/>
      <point x="293" y="554"/>
      <point x="196" y="554" type="curve" smooth="yes"/>
      <point x="141" y="554"/>
      <point x="101" y="535"/>
      <point x="66" y="517" type="curve" smooth="yes"/>
      <point x="57" y="512"/>
      <point x="57" y="516"/>
      <point x="57" y="530" type="curve" smooth="yes"/>
      <point x="57" y="640"/>
      <point x="101" y="727"/>
      <point x="210" y="727" type="curve" smooth="yes"/>
      <point x="248" y="727"/>
      <point x="272" y="713"/>
      <point x="292" y="691" type="curve"/>
      <point x="294" y="688"/>
      <point x="298" y="687"/>
      <point x="300" y="689" type="curve"/>
      <point x="315" y="700" type="line"/>
      <point x="319" y="702"/>
      <point x="317" y="705"/>
      <point x="315" y="706" type="curve"/>
      <point x="289" y="734"/>
      <point x="259" y="753"/>
    </contour>
    <contour>
      <point x="199" y="528" type="curve"/>
      <point x="199" y="528" type="line"/>
      <point x="273" y="528"/>
      <point x="315" y="477"/>
      <point x="315" y="418" type="curve" smooth="yes"/>
      <point x="315" y="352"/>
      <point x="264" y="300"/>
      <point x="196" y="300" type="curve" smooth="yes"/>
      <point x="99" y="300"/>
      <point x="58" y="400"/>
      <point x="58" y="464" type="curve" smooth="yes"/>
      <point x="58" y="481"/>
      <point x="61" y="486"/>
      <point x="73" y="494" type="curve" smooth="yes"/>
      <point x="104" y="514"/>
      <point x="160" y="528"/>
    </contour>
  </outline>
</glyph>
